<?xml version="1.0" encoding="utf-8"?>
<!-- Generator: Adobe Illustrator 16.0.0, SVG Export Plug-In . SVG Version: 6.00 Build 0)  -->
<!DOCTYPE svg PUBLIC "-//W3C//DTD SVG 1.1//EN" "http://www.w3.org/Graphics/SVG/1.1/DTD/svg11.dtd">
<svg version="1.1" id="Layer_1" xmlns="http://www.w3.org/2000/svg" xmlns:xlink="http://www.w3.org/1999/xlink" x="0px" y="0px"
	 width="623.62px" height="198.43px" viewBox="0 0 623.62 198.43" enable-background="new 0 0 623.62 198.43" xml:space="preserve">
<g>
	<path fill="#003F72" d="M249.045,86.269c-15.219,0-25.145-10.85-25.145-26.869c0-15.725,10.587-27.068,25.809-27.068
		c14.464,0,23.539,10.252,23.539,27.467c0,0.693,0,1.393,0,2.089h-34.221c0,8.957,3.876,13.834,10.586,13.834
		c4.729,0,8.318-2.789,9.646-7.666l13.706,1.195C269.749,80.099,261.052,86.269,249.045,86.269 M258.502,53.527
		c-0.097-7.461-3.594-11.44-9.646-11.44c-5.577,0-9.263,4.081-9.64,11.44H258.502z"/>
	<path fill="#003F72" d="M585.149,86.269c-15.219,0-25.146-10.85-25.146-26.869c0-15.725,10.588-27.068,25.812-27.068
		c14.465,0,23.537,10.252,23.537,27.467c0,0.693,0,1.393,0,2.089h-34.219c0,8.957,3.873,13.834,10.586,13.834
		c4.729,0,8.316-2.789,9.645-7.666l13.705,1.195C605.853,80.099,597.157,86.269,585.149,86.269 M594.61,53.527
		c-0.1-7.461-3.596-11.44-9.646-11.44c-5.58,0-9.266,4.081-9.643,11.44H594.61z"/>
	<polyline fill="#003F72" points="274.656,33.726 290.696,33.726 298.145,63.774 305.267,33.726 318.528,33.726 325.985,64.269 
		334.862,33.726 346.835,33.726 332.089,84.878 318.646,84.878 310.187,51.638 301.727,84.878 289.463,84.878 274.656,33.726 	"/>
	<path fill="#003F72" d="M373.888,42.683c-6.475,0-10.939,5.574-11.125,16.518c-0.189,10.949,4.293,16.619,10.561,16.619
		c4.914,0,9.553-3.781,10.396-10.449l12.746,1.49c-1.666,11.846-11.094,19.408-24.16,19.408c-15.15,0-25.621-10.85-25.35-26.869
		c0.279-16.319,11.227-27.068,27.422-27.068c12.328,0,20.775,7.165,22.238,19.408l-13.209,1.389
		C382.585,46.365,378.382,42.683,373.888,42.683"/>
	<path fill="#003F72" d="M434.089,76.616c-3.309,6.168-8.887,9.553-16.076,9.553c-10.582,0-17.012-6.172-17.012-15.627
		c0-12.037,10.965-18.406,32.803-18.605v-2.189c0-5.174-2.738-7.859-8.133-7.859c-5.951,0-9.357,2.486-10.109,7.158l-13.238-1.49
		c2.27-10.051,10.398-15.225,24.105-15.225c15.316,0,21.271,5.971,21.271,20v22.691c0,4.182,0.379,7.465,1.418,9.855h-14.084
		C434.464,82.487,434.181,79.702,434.089,76.616 M415.933,69.649c0,4.178,2.654,6.664,7.381,6.664c5.951,0,10.49-4.973,10.49-11.939
		v-4.576C421.985,59.998,415.933,63.581,415.933,69.649z"/>
	<path fill="#003F72" d="M465.243,68.853c1.225,4.68,5.477,7.363,11.812,7.363c5.391,0,8.416-2.389,8.416-5.572
		c0-4.479-4.256-4.277-11.818-5.871c-12.098-2.488-18.152-6.568-18.152-15.822c0-9.556,7.75-16.717,20.609-16.717
		c10.494,0,17.584,4.674,20.611,13.336l-11.439,2.186c-1.705-4.08-4.822-5.77-9.736-5.77c-4.729,0-7.281,1.79-7.281,5.074
		c0,4.475,4.918,4.279,14.084,6.268c11.062,2.391,16.455,6.369,16.455,15.326c0,10.053-8.514,17.314-22.973,17.314
		c-11.725,0-20.045-5.869-22.408-15.426L465.243,68.853"/>
	<polyline fill="#003F72" points="538.919,15.796 553.599,15.796 553.599,84.878 538.919,84.878 538.919,15.796 	"/>
	<path fill="#003F72" d="M239.834,126.537c2.113-3.529,4.604-6.178,7.475-7.939c2.868-1.764,6.11-2.65,9.738-2.65
		c3.113,0,5.729,0.623,7.843,1.863c2.115,1.238,3.808,3.201,5.084,5.877c1.275,2.684,1.913,5.686,1.913,9.012v23.213
		c0,1.73,0.379,2.961,1.151,3.689c0.766,0.729,2.051,1.096,3.861,1.096h3.31v3.744h-24.972v-3.744h2.369
		c2.22,0,3.766-0.354,4.641-1.066c0.875-0.707,1.313-1.766,1.313-3.184v-20.299c0-4.42-0.668-7.688-2.005-9.812
		c-1.868-3.039-4.704-4.557-8.505-4.557c-3.773,0-6.92,1.535-9.437,4.6c-2.521,3.072-3.78,7.074-3.78,12v17.562
		c0,1.721,0.39,2.943,1.18,3.668c0.787,0.729,2.08,1.088,3.887,1.088h3.259v3.744h-25.389v-3.744h3.276
		c1.648,0,2.901-0.342,3.759-1.018c0.858-0.678,1.288-1.523,1.288-2.547v-30.811c0-2.035-0.545-3.572-1.631-4.631
		c-1.091-1.049-2.654-1.58-4.695-1.58h-2.416v-3.328l16.859-0.848L239.834,126.537"/>
	<path fill="#003F72" d="M281.197,116.99l19.142-0.625v40.93c0,1.121,0.273,1.91,0.815,2.385c0.778,0.676,1.761,1.018,2.953,1.018
		h5.39v3.744h-27.263v-3.744h5.042c1.489,0,2.584-0.359,3.28-1.09c0.692-0.729,1.041-1.789,1.041-3.176v-29.959
		c0-1.893-0.546-3.324-1.63-4.287c-1.09-0.965-2.705-1.447-4.845-1.447h-3.926V116.99 M294.591,97.012
		c1.522,0,2.865,0.576,4.021,1.73c1.148,1.152,1.727,2.511,1.727,4.07c0,1.527-0.562,2.846-1.678,3.967
		c-1.122,1.121-2.463,1.68-4.021,1.68c-1.557,0-2.906-0.562-4.038-1.703c-1.145-1.137-1.708-2.465-1.708-3.998
		c0-1.518,0.574-2.863,1.729-4.015C291.773,97.588,293.098,97.012,294.591,97.012z"/>
	<path fill="#003F72" d="M491.929,116.99l19.143-0.625v40.93c0,1.121,0.273,1.91,0.812,2.385c0.787,0.676,1.766,1.018,2.959,1.018
		h5.389v3.744h-27.266v-3.744h5.039c1.492,0,2.588-0.359,3.283-1.09c0.693-0.729,1.045-1.789,1.045-3.176v-29.959
		c0-1.893-0.547-3.324-1.633-4.287c-1.09-0.965-2.705-1.447-4.848-1.447h-3.924V116.99 M505.327,97.012
		c1.521,0,2.861,0.576,4.016,1.73c1.15,1.152,1.729,2.511,1.729,4.07c0,1.527-0.564,2.846-1.676,3.967
		c-1.127,1.121-2.465,1.68-4.023,1.68c-1.555,0-2.906-0.562-4.039-1.703c-1.148-1.137-1.711-2.465-1.711-3.998
		c0-1.518,0.576-2.863,1.73-4.015C502.505,97.588,503.831,97.012,505.327,97.012z"/>
	<path fill="#003F72" d="M306.185,116.783h23.521v3.537c-3.133,0.07-5.135,0.344-5.996,0.832c-0.867,0.492-1.303,1.188-1.303,2.096
		c0,0.748,0.152,1.482,0.453,2.223l12.562,28.148l11.58-27.277c0.168-0.471,0.254-0.941,0.254-1.416
		c0-2.465-2.457-3.996-7.357-4.605v-3.537h19.771v3.537c-2.004,0.203-3.602,0.74-4.787,1.611c-1.189,0.873-2.111,2.037-2.756,3.516
		L334.614,165.9h-2.826l-18.561-41.578c-0.684-1.465-1.51-2.488-2.477-3.072c-0.971-0.59-2.494-0.895-4.566-0.93V116.783"/>
	<path fill="#003F72" d="M401.681,140.924h-34.342c0.174,7.26,1.537,12.381,4.109,15.363c2.941,3.352,6.695,5.033,11.24,5.033
		c6.717,0,12.107-3.744,16.182-11.24l3.23,1.412c-4.965,9.609-12.115,14.408-21.479,14.408c-6.385,0-11.75-2.314-16.107-6.926
		c-4.361-4.621-6.543-10.525-6.543-17.725c0-7.738,2.148-14,6.436-18.77c4.295-4.768,9.574-7.152,15.855-7.152
		c4.609,0,8.598,1.191,11.957,3.562c3.35,2.375,5.877,5.787,7.576,10.227C400.985,132.236,401.614,136.178,401.681,140.924
		 M367.339,137.385h21.039c1.244,0,2.209-0.412,2.898-1.244s1.039-2.25,1.039-4.256c0-3.729-1.182-6.9-3.551-9.514
		c-2.367-2.617-5.152-3.92-8.369-3.92c-3.594,0-6.641,1.574-9.145,4.732C368.751,126.342,367.446,131.076,367.339,137.385z"/>
	<path fill="#003F72" d="M452.417,146.752c2.105,5.887,4.533,9.957,7.273,12.217c2.732,2.266,6.109,3.393,10.127,3.393
		c3.703,0,6.553-0.812,8.539-2.439c1.992-1.625,2.986-3.686,2.986-6.189c0-1.439-0.365-2.688-1.096-3.77s-1.742-1.883-3.031-2.414
		c-1.297-0.527-4.65-1.309-10.051-2.344c-5.17-1.023-8.771-2.1-10.803-3.217c-2.027-1.121-3.615-2.668-4.744-4.637
		c-1.133-1.971-1.695-4.113-1.695-6.426c0-3.498,1.158-6.672,3.496-9.525c3.01-3.633,7.217-5.453,12.631-5.453
		c4.121,0,7.943,1.336,11.461,4l3.352-3.582h2.076l1.318,17.068h-3.328c-1.496-4.945-3.512-8.502-6.059-10.682
		c-2.549-2.172-5.686-3.262-9.414-3.262c-3.223,0-5.75,0.803-7.584,2.406c-1.838,1.607-2.75,3.564-2.75,5.881
		c0,2.041,0.844,3.73,2.541,5.076c1.658,1.383,4.92,2.459,9.787,3.244c5.645,0.947,9.322,1.748,11.023,2.389
		c2.76,1.018,4.9,2.58,6.424,4.689c1.514,2.113,2.273,4.693,2.273,7.729c0,4.186-1.65,7.734-4.955,10.637
		c-3.309,2.904-7.502,4.359-12.584,4.359c-4.713,0-9.086-1.551-13.117-4.635l-3.715,4.215h-2.699l-1.014-18.729H452.417"/>
	<path fill="#003F72" d="M555.345,116.783h22.889v3.537h-2.143c-2.008,0-3.385,0.26-4.109,0.77
		c-0.732,0.516-1.098,1.256-1.098,2.215c0,0.428,0.102,0.859,0.312,1.289l13.34,28.514l9.971-23.641
		c0.709-1.676,1.07-3.32,1.07-4.924c0-1.238-0.496-2.203-1.471-2.887c-0.982-0.689-2.943-1.133-5.877-1.336v-3.537h19.764v3.537
		c-3.754,0.369-6.273,2.045-7.562,5.031l-17.908,41.021c-3.041,6.977-6.072,11.752-9.1,14.334c-3.053,2.615-6.336,3.92-9.836,3.92
		c-2.543,0-4.594-0.699-6.137-2.086c-1.545-1.395-2.32-3.111-2.32-5.148c0-1.527,0.482-2.789,1.426-3.766
		c0.951-0.992,2.141-1.484,3.562-1.484c1.295,0,2.381,0.422,3.266,1.262c0.873,0.834,1.322,1.848,1.322,3.023
		c0,0.371-0.07,0.873-0.203,1.516c-0.137,0.498-0.203,0.867-0.203,1.105c0,0.811,0.523,1.213,1.582,1.213
		c1.121,0,2.395-0.402,3.814-1.201c1.418-0.803,2.74-2.084,3.969-3.854c1.23-1.768,3.367-5.768,6.422-12.014l-18.055-38.6
		c-0.654-1.322-1.455-2.307-2.428-2.953s-2.393-1.086-4.26-1.32V116.783"/>
	<polyline fill="#003F72" points="158.229,15.798 176.98,15.798 203.135,58.429 203.118,15.798 217.746,15.798 217.746,84.864 
		202.129,84.864 172.866,36.908 172.834,84.864 158.229,84.864 158.229,15.798 	"/>
	<path fill="#003F72" d="M149.539,95.26h31.25v3.742h-5.233c-1.849,0-3.144,0.309-3.879,0.916c-0.739,0.613-1.107,1.542-1.107,2.794
		v37.768c0,4.438,0.39,7.789,1.166,10.059c1.146,3.355,3.254,6.035,6.312,8.027c3.055,2.004,7.054,2.996,11.99,2.996
		c6.823,0,12.026-1.764,15.612-5.307c3.575-3.539,5.371-8.271,5.371-14.199v-29.84c0-3.055-0.217-5.363-0.643-6.939
		c-0.429-1.572-1.045-2.801-1.846-3.682c-0.799-0.877-1.817-1.529-3.042-1.957c-1.234-0.422-3.283-0.637-6.146-0.637V95.26h28.562
		v3.742h-2.026c-3.182,0-5.549,0.857-7.107,2.568c-1.558,1.717-2.333,4.201-2.333,7.457v32.318c0,8.068-2.305,14.262-6.916,18.564
		c-5.188,4.854-12.089,7.275-20.702,7.275c-7.459,0-13.325-1.059-17.601-3.172c-4.272-2.125-7.376-5.17-9.307-9.139
		c-1.459-3.01-2.184-6.812-2.184-11.395v-40.766c0-1.146-0.4-2.057-1.191-2.718c-0.795-0.662-1.98-0.994-3.564-0.994h-5.436V95.26"
		/>
	<path fill="#003F72" d="M532.3,74.261c-1.643,0.322-3.146,0.465-4.447,0.465c-5.076,0-6.168-2.287-6.168-8.064V43.675H532.3v-9.949
		h-10.615V18.888l-14.828,2.715v12.123h-6.602v9.949h6.602v24.582c0,12.539,4.779,18.012,16.814,18.012
		c2.746,0,5.643-0.314,8.629-0.873V74.261"/>
	<path fill="#003F72" d="M552.185,146.344c-0.271,5.016-1.223,8.611-2.846,10.789c-1.629,2.182-3.594,3.27-5.902,3.27
		c-1.932,0-3.529-0.717-4.779-2.148c-1.256-1.434-1.881-3.496-1.881-6.193v-31.137h14.951v-4.135h-14.951V96.995h-3.496
		c-0.314,6.652-1.938,11.857-4.893,15.591c-2.045,2.559-5.027,4.164-8.941,4.82v3.518h8.473V153.5c0,3.555,1.125,6.432,3.381,8.619
		c2.252,2.195,5.379,3.291,9.377,3.291c4.33,0,7.861-1.562,10.584-4.688c2.721-3.125,4.184-7.92,4.389-14.379H552.185"/>
	<path fill="#003F72" d="M439.817,115.07c-8.322,0-15.336,9.727-18.217,20.6v-19.723l-17.268,0.836v3.748h4.127
		c1.816,0,3.211,0.529,4.184,1.6c0.979,1.066,1.461,2.746,1.461,5.053V157.5c0,0.879-0.406,1.635-1.217,2.258
		c-0.818,0.627-2.021,0.939-3.615,0.939h-4.734v3.744H434.3v-3.744h-6.061c-1.967,0-3.355-0.303-4.17-0.916
		c-0.812-0.611-1.221-1.492-1.221-2.641v-8.838c0-9.154,3.871-24.783,11.617-24.783c2.113,0,1.688,3.379,5.914,3.379
		c3.377,0,5.773-2.535,5.773-5.773C446.153,117.465,443.196,115.07,439.817,115.07"/>
	<path fill="#003F72" d="M14.269,15.798c0,0,0.004,40.81,0.004,60.611c0,57.263,64.494,90.386,64.494,90.386
		s64.494-32.875,64.494-90.386c0-19.801,0.002-60.611,0.002-60.611H14.269"/>
	<g>
		<path fill="#FFFFFF" d="M113.899,118.137c0-3.469-0.519-6.895-1.513-10.188c-9.553,6.26-19.042,7.932-24.665,4.504
			c0.31-0.396,0.498-0.896,0.498-1.438c0-1.287-1.046-2.336-2.336-2.336c-0.542,0-1.039,0.188-1.437,0.496
			c-3.428-5.621-1.757-15.112,4.503-24.663c-3.292-0.994-6.717-1.512-10.185-1.512l0,0c-3.468,0-6.892,0.518-10.186,1.512
			c6.261,9.551,7.932,19.042,4.504,24.661c-0.396-0.309-0.894-0.496-1.438-0.496c-1.288,0-2.334,1.047-2.334,2.336
			c0,0.541,0.187,1.039,0.496,1.436c-5.624,3.43-15.113,1.758-24.665-4.502c-0.996,3.291-1.514,6.717-1.514,10.184h0.003
			c0,3.469,0.519,6.893,1.512,10.186c9.553-6.26,19.043-7.932,24.667-4.502c-0.312,0.393-0.499,0.896-0.499,1.439
			c0,1.285,1.046,2.334,2.334,2.334c0.544,0,1.042-0.186,1.438-0.496c3.428,5.619,1.757,15.111-4.504,24.662
			c3.294,0.996,6.718,1.514,10.186,1.514l0,0c3.468,0,6.893-0.518,10.185-1.512c-6.26-9.553-7.931-19.043-4.503-24.664
			c0.396,0.311,0.895,0.496,1.437,0.496c1.29,0,2.336-1.049,2.336-2.334c0-0.543-0.188-1.043-0.498-1.438
			c5.625-3.43,15.113-1.758,24.666,4.502c0.996-3.293,1.514-6.717,1.514-10.182H113.899"/>
		<path fill="#003F72" d="M85.121,118.131c0,3.508-2.846,6.355-6.355,6.355s-6.354-2.848-6.354-6.355
			c0-3.504,2.846-6.352,6.354-6.352S85.121,114.627,85.121,118.131"/>
	</g>
	<rect x="18.012" y="19.541" fill="#FFFFFE" width="121.508" height="56.869"/>
	<path fill="#C60C30" d="M88.585,60.023c0.595,0.422,0.315,0.891,0.03,1.158c-0.289,0.27-3.375,2.291-5.375,1.669
		c-1.525-0.475-1.521-3.212-3.633-4.099c-1.698-0.711-3.594,0.574-3.594,0.574c2.99-0.14,3.885,4.152,3.885,4.152
		c-4.562-3.576-8.799-1.145-9.099,1.17c4.038-2.439,7.14,0.902,7.14,0.902c-1.439,0.205-4.551,2.502-2.215,6.168
		c0.441-4.305,4.699-5.039,4.699-5.039c-0.368,2.018,1.442,5.975,4.776,5.152c-2.422-1.592-2.045-3.236-2.045-4.27
		c0-0.646,0.653-1.021,1.518-1.113c4.738-0.504,4.738,3.086,4.738,3.086c1.295-0.129,4.799-4.764,4.629-7.215
		c1.328,1.98,4.811,3.076,7.334,1.338c-3.243-0.523-4.597-3.715-4.769-4.327c-0.171-0.607-0.979-4.503-2.47-5.994
		c-2.116-2.115-5.456-0.486-7.243,1.196c-0.552,0.52-2.186,3.443-0.223,4.332C88.015,59.474,88.271,59.8,88.585,60.023"/>
	<path fill="#C60C30" d="M37.427,50.574c-4.935,0-10.447-9.885-10.864-10.736c2.786-0.205,2.658-1.579,2.381-2.476
		c-1.026-3.319-7.269-0.207-7.842,0.365c0.215-3.226,3.654-4.511,5.827-4.126l0,0c-0.384-4.926-4.938-5.17-4.938-5.17
		c3.855-2.86,6.387,0.783,7.197,3.575c3.904-2.893,0.201-6.843-0.502-7.212c0,0,3.113-0.277,4.365,2.909
		c1.17,2.966-0.348,4.81-0.348,4.81s1-0.029,1.648-0.482c2.181-1.525,2.083-3.55,1.968-3.945c0,0,1.626,1.021,1.423,2.92
		c-0.137,1.275-1.414,2.337-1.954,3.033c-0.537,0.696-1.846,2.193-0.206,6.957c0.8,2.328,2.034,4.107,2.864,4.495
		C37.942,46.493,37.034,47.65,37.427,50.574"/>
	<path fill="#C60C30" d="M26.655,57.761c-3.051,0.223-8.506,1.461-5.717,7.105c0.116-3.828,5.245-4.199,6.158-3.943
		c-2.484,4.169,0.414,8.21,2.671,7.982c-2.325-1.846-0.247-4.477,0.021-5.426c0.188-0.672,1.043-1.076,1.875-0.836
		c2.811,0.812,0.767,3.193,0.767,3.193c6.205,2.785,9.006,0.352,10.167-0.994c0,0,1.884,1.848,0.026,3.209
		c1.005,0.629,6.87,0.844,9.059-1.891c0.723,2.211,7.654,2.189,8.842,1.248c0,0-1.354-0.758-1.354-1.824
		c0-1.74,1.912-3.068,4.288-4.105c2.761-1.205,7.278-1.752,11.854-3.923c8.43-4.001,18.799-11.404,22.142-6.768
		c1.704,2.363,1.286,4.672,2.987,6.29c1.701,1.624,4.449,0.894,6.124,0.696c4.128-0.486,9.953-1.098,13.562-1.349
		c3.6-0.25,4.56,2.445,4.637,2.665c0.277,0.786-0.052,1.279-0.572,1.244c-1.203-0.075-3.387-0.627-4.652,0.09
		c-1.816,1.028-1.306,3.517-1.306,3.517c1.535-2.57,5.697-2.213,7.157-1.957c-1.402,1.211-4.021,5.945-0.285,7.967
		c-0.974-3.584,2.393-6.109,2.393-6.109c0.304,1.012,2.518,3.055,7.384,2.775c-5.125-1.617-4.308-4.246-4.308-4.246
		c1.67,0.732,5.264,0.25,6.964-3.523c-5.804,3.554-7.416,0.172-7.642-0.225c-1.033-1.826,1.753-2.194,1.753-2.194
		c-0.625-1.238-8.596-6.151-4.629-7.704c-1.396-0.807-4.678-0.471-7.633,1.687c0.115-0.652,0.027-2.571-0.865-3.379
		c0,0-4.783,3.327-8.564,2.684c-3.78-0.645-2.257-6.282-2.257-6.282s9.714,1.183,13.325-0.488c3.615-1.67,3.587-4.25,6.614-5.824
		c2.433-1.268,5.335-0.221,5.335-0.221c-0.446-2.495-5.174-4.452-8.811-0.631c0,0-0.252-7.075-8.918-6.241
		c-5.371,0.517-9.424,2.733-14.959,3.745c-5.399,0.988-10.499,1.936-13.914,1.936c-3.417,0-8.336-0.931-8.704-4.664
		c-0.219-2.222,1.532-3.176,3.164-3.176c2.592,0,6.221,1.528,9.146,2.539c2.088,0.724,4.146,0.735,5.274,0.735
		c3.063,0,6.917-1.532,8.848-2.289c1.932-0.757,3.453-1.229,7.153-0.916c-1.153-1.509-9.395-5.104-15.005-4.794
		c-5.342,0.297-5.655,2.755-10.854,2.533c-5.201-0.219-9.816,0.645-9.963,4.572c-0.146,3.944,3.332,8.111,11.866,7.486
		c3.521-0.218,16.464-2.39,19.05-3.207c3.439-1.088,16.396-3.626,13.938,2.831c-0.523,1.377-2.088,2.834-5.916,2.834
		s-8.604-1.1-9.875-1.318c-1.275-0.222-4.693-0.616-8.045-0.147c-3.121,0.438-24.549,3.501-28.384,4.045
		c0,1.261-0.803,5.44,2.903,7.705c-1.629,0.756-4.83,2.449-7.86,1.078c-0.237,1.015,0.995,2.891,2.445,4.469
		c-1.214,0.396-5.804,2.557-8.198,0.999c-0.965,1.723-3.836,6.049-10.756,4.625c0.442-0.332,0.184-2.418-1.366-3.127
		c-1.709,0.229-1.915,1.181-8.671,0.396c-2.048-0.234-3.722-0.901-4.311-2.218c-0.625-1.383,0.25-3.345-0.184-4.442
		c-0.906-2.303-4.338-1.998-4.338-1.998c2.971,2.287,0.99,5.527,0.99,5.527c-2.846-2.844-7.219-5.596-8.729-0.578
		c4.426-1.637,6.706,2.549,6.706,2.549"/>
	<path fill="#C60C30" d="M70.421,32.587c-1.684-3.295-5.467-0.912-5.467-0.912c1.014-1.169,0.076-4.917-1.158-5.713
		c-0.035,1.893-1.627,2.477-2.842,2.162c-1.516-0.395-0.934-2.532-0.48-3.433c-1.166-0.073-3.628-0.246-5.301,2.182
		c-0.442-3.029-3.153-4.276-5.992-3.54c3.014,3.47-3.541,7.221-5.818,6.134c-1.087,2.243,2.549,4.778,3.046,4.064
		c-1.925,2.771-5.034,2.157-6.758,1.567c-0.057,1.225,1.272,3.799,3.823,3.799c-1.335,2.023-4.153,2.176-4.996,1.752
		c-0.375,1.943,2.779,3.677,3.638,3.826c-2.589,4.136-1.708,9.154-0.267,11.152l0.967,1.707c2.123-4.243,6.96-2.562,6.154,1.488
		c4.568,0.488,6.845-3.484,7.832-5.906c1.561,1.744,3.544,1.943,4.628,1.699c-1.485-2.778-0.825-5.649-0.162-6.668
		c1.553,1.503,3.836,1.821,4.952,1.453c-1.473-2.042-1.5-7.093-1.08-8.856c1.035,0.692,3.283,1.4,4.37-1.124
		C67.496,39.054,67.056,32.482,70.421,32.587z M49.755,33.197c0.273-0.3,0.869-0.806,1.083-0.495
		c0.452,0.655,0.576,1.222,1.517,2.069c0.621,0.562,1.645,0.939,2.08,1.066c0.243,0.998-1.68,2.429-3.884,0.396
		C49.419,35.187,49.074,33.939,49.755,33.197z M54.731,46.902c-2.359,3.285-4.721,1.812-4.721,1.812s-2.68-1.046-1.387-4.884
		c-1.739-1.215-1.101-2.802-0.571-3.093c0.25,0.517,0.418,1.512,1.915,2.263c1.498,0.755,2.066,0.336,2.235,0.001
		c0.307-0.609-0.443-1.174-0.975-1.749c-0.515-0.565-0.636-1.46-0.277-1.896c0.451-0.551,1.306-0.527,1.683-0.249
		c-1.836,0.328,0.574,1.829,1.142,2.114c0.57,0.284,3.216,1.345,2.387-0.322c0.447,0.137,0.947,0.774,0.772,1.467
		c-0.135,0.547-0.927,0.983-1.686,0.904c-0.78-0.083-1.68-0.345-1.985,0.261c-0.171,0.339-0.047,1.151,1.452,1.904
		c1.497,0.753,2.078,0.262,2.834,0.125C57.628,46.159,56.744,47.572,54.731,46.902z M62.344,39.461
		c-0.188,0.966-1.37,1.42-2.847,1.137c-2.877-0.551-2.884-2.817-1.959-3.204c0.354,0.269,1.242,0.851,2.045,1.014
		c1.213,0.244,1.729,0.016,2.508-0.012C62.458,38.386,62.421,39.073,62.344,39.461z"/>
</g>
</svg>
